<svg width="30" height="30" viewBox="0 0 30 30" fill="none" xmlns="http://www.w3.org/2000/svg">
<path d="M4.94186 4.93146C2.27436 7.6002 0.775813 11.2198 0.775879 14.9939C0.775945 18.768 2.27462 22.3875 4.94221 25.0561C7.6098 27.7248 11.2278 29.2239 15.0003 29.2239C18.7727 29.2238 22.3907 27.7245 25.0582 25.0558C27.7257 22.387 29.2242 18.7675 29.2242 14.9934C29.2241 11.2193 27.7254 7.59976 25.0578 4.93111C22.3902 2.26246 18.7722 0.76327 14.9998 0.763336C11.2273 0.763402 7.60935 2.26272 4.94186 4.93146Z" fill="white"/>
<path d="M15 30C11.1466 30 7.31897 28.5252 4.39655 25.6016C1.55172 22.7814 0 19.0039 0 14.9935C0 10.9832 1.55172 7.20569 4.39655 4.38551C10.2414 -1.46184 19.7586 -1.46184 25.6034 4.38551C28.4483 7.23157 30 10.9832 30 14.9935C30 19.0039 28.4483 22.7814 25.6034 25.6016C22.681 28.5252 18.8534 30 15 30ZM15 1.53946C11.5603 1.53946 8.12069 2.85899 5.48276 5.47219C2.94828 8.03364 1.55172 11.3972 1.55172 14.9935C1.55172 18.5899 2.94828 21.9534 5.48276 24.5149C10.7328 29.7671 19.2672 29.7671 24.4914 24.5149C27.0517 21.9534 28.4483 18.5899 28.4483 14.9935C28.4483 11.3972 27.0517 8.03364 24.5172 5.47219C21.8793 2.85899 18.4397 1.53946 15 1.53946Z" fill="#3763FF"/>
<path d="M20.7154 14.4502L16.8361 10.5692C16.5257 10.2587 16.0344 10.2587 15.7499 10.5692C15.4395 10.8797 15.4395 11.3713 15.7499 11.6559L18.3102 14.2173H10.3447C9.90505 14.2173 9.56885 14.5537 9.56885 14.9935C9.56885 15.4334 9.90505 15.7697 10.3447 15.7697H18.3102L15.7499 18.3312C15.4395 18.6416 15.4395 19.1332 15.7499 19.4178C15.9051 19.5731 16.112 19.6507 16.293 19.6507C16.474 19.6507 16.6809 19.5731 16.8361 19.4178L20.7154 15.5369C21.0257 15.2264 21.0257 14.7607 20.7154 14.4502Z" fill="#3763FF"/>
</svg>
