<svg width="30" height="30" viewBox="0 0 30 30" fill="none" xmlns="http://www.w3.org/2000/svg">
<path d="M4.94186 4.94227C2.27436 7.60986 0.775813 11.2279 0.775879 15.0003C0.775945 18.7728 2.27462 22.3907 4.94221 25.0582C7.6098 27.7257 11.2278 29.2243 15.0003 29.2242C18.7727 29.2242 22.3907 27.7255 25.0582 25.0579C27.7257 22.3903 29.2242 18.7723 29.2242 14.9998C29.2241 11.2274 27.7254 7.60942 25.0578 4.94192C22.3902 2.27442 18.7722 0.775874 14.9998 0.77594C11.2273 0.776006 7.60935 2.27468 4.94186 4.94227Z" fill="white"/>
<path d="M15 30C10.9914 30 7.21552 28.4483 4.39655 25.6034C1.55172 22.7845 0 19.0086 0 15C0 10.9914 1.55172 7.21552 4.39655 4.39655C7.24138 1.55172 10.9914 0 15 0C19.0086 0 22.7845 1.55172 25.6034 4.39655C28.4483 7.24138 30 10.9914 30 15C30 19.0086 28.4483 22.7845 25.6034 25.6034C22.7845 28.4483 19.0086 30 15 30ZM15 1.55172C11.4052 1.55172 8.0431 2.94828 5.48276 5.48276C2.92241 8.01724 1.55172 11.4052 1.55172 15C1.55172 18.5948 2.94828 21.9569 5.48276 24.5172C8.01724 27.0776 11.4052 28.4483 15 28.4483C18.5948 28.4483 21.9569 27.0517 24.5172 24.5172C27.0776 21.9828 28.4483 18.5948 28.4483 15C28.4483 11.4052 27.0517 8.0431 24.5172 5.48276C21.9569 2.94828 18.5948 1.55172 15 1.55172Z" fill="#3763FF"/>
<path d="M16.0864 15L19.0088 12.0776C19.3191 11.7672 19.3191 11.2759 19.0088 10.9914C18.6984 10.681 18.207 10.681 17.9226 10.9914L15.0002 13.9138L12.0777 10.9655C11.7674 10.6552 11.276 10.6552 10.9915 10.9655C10.6812 11.2759 10.6812 11.7672 10.9915 12.0517L13.9139 15L10.9657 17.9224C10.6553 18.2328 10.6553 18.7241 10.9657 19.0086C11.1208 19.1638 11.3277 19.2414 11.5088 19.2414C11.6898 19.2414 11.8967 19.1638 12.0519 19.0086L15.0002 16.0862L17.9226 19.0086C18.0777 19.1638 18.2846 19.2414 18.4657 19.2414C18.6467 19.2414 18.8536 19.1638 19.0088 19.0086C19.3191 18.6983 19.3191 18.2069 19.0088 17.9224L16.0864 15Z" fill="#3763FF"/>
</svg>
