<svg width="17" height="17" viewBox="0 0 17 17" fill="none" xmlns="http://www.w3.org/2000/svg">
<path d="M5.18458 15.7713L14.6369 6.31473L16.176 4.77493C16.7046 4.24611 17 3.5462 17 2.79963C17 2.05306 16.7046 1.35316 16.176 0.824337C15.6474 0.295517 14.9478 0 14.2016 0C13.4554 0 12.7558 0.295517 12.2272 0.824337L10.7036 2.34858L1.23574 11.8207C1.158 11.8984 1.11136 11.9918 1.11136 12.0851L0.567233 15.7713L0.147475 16.1912C-0.0235378 16.3623 -0.0546311 16.6578 0.100835 16.8445C0.194115 16.9533 0.318488 17 0.458407 17C0.58278 17 0.691606 16.9533 0.784886 16.86L1.22019 16.4245L4.92028 15.8957C5.02911 15.8957 5.12239 15.849 5.18458 15.7713ZM12.8801 1.47758C13.2377 1.11985 13.7041 0.933211 14.2016 0.933211C14.6991 0.933211 15.1655 1.11985 15.5231 1.47758C15.8806 1.83532 16.0672 2.30192 16.0672 2.79963C16.0672 3.29735 15.8806 3.76395 15.5231 4.12168L14.497 5.14822C13.9684 3.9817 13.0356 3.03294 11.8696 2.50412L12.8801 1.47758ZM11.1389 3.21958C12.7402 3.77951 13.5642 4.91491 13.7974 5.83257L5.18458 14.4492C4.71818 13.236 3.75429 12.2873 2.54165 11.8051L11.1389 3.21958ZM1.56222 15.4446L1.96643 12.5984C3.13242 12.9716 4.04967 13.8737 4.40725 15.0403L1.56222 15.4446Z" fill="#3763FF"/>
</svg>
