<svg width="62" height="70" viewBox="0 0 62 70" fill="none" xmlns="http://www.w3.org/2000/svg">
<path d="M28.2602 4C17.2362 4 8.36566 12.8132 8.00673 24.0717C7.69909 34.617 18.0053 48.6774 24.2095 56.0642C25.235 57.2868 26.7219 57.9491 28.2602 57.9491C29.7984 57.9491 31.3367 57.2358 32.3109 56.0642C38.5151 48.6264 48.8213 34.617 48.5136 24.0717C48.1547 12.8132 39.2842 4 28.2602 4Z" fill="#919AA1"/>
<path d="M28.26 16.6849C27.2769 16.6849 26.3035 16.8773 25.3952 17.2511C24.487 17.6249 23.6617 18.1727 22.9665 18.8634C22.2714 19.5541 21.72 20.374 21.3438 21.2764C20.9676 22.1788 20.7739 23.1459 20.7739 24.1227C20.7739 25.0994 20.9676 26.0666 21.3438 26.969C21.72 27.8714 22.2714 28.6913 22.9665 29.3819C23.6617 30.0726 24.487 30.6205 25.3952 30.9942C26.3035 31.368 27.2769 31.5604 28.26 31.5604C29.2431 31.5604 30.2166 31.368 31.1248 30.9942C32.0331 30.6205 32.8583 30.0726 33.5535 29.3819C34.2486 28.6913 34.8 27.8714 35.1763 26.969C35.5525 26.0666 35.7461 25.0994 35.7461 24.1227C35.7461 23.1459 35.5525 22.1788 35.1763 21.2764C34.8 20.374 34.2486 19.5541 33.5535 18.8634C32.8583 18.1727 32.0331 17.6249 31.1248 17.2511C30.2166 16.8773 29.2431 16.6849 28.26 16.6849Z" fill="#CAD7E0"/>
<path d="M43.6425 58H28.2602C27.3885 58 26.7219 57.3377 26.7219 56.4717C26.7219 55.6056 27.3885 54.9434 28.2602 54.9434H43.6425C44.5142 54.9434 45.1808 55.6056 45.1808 56.4717C45.1808 57.3377 44.5142 58 43.6425 58Z" fill="#919AA1"/>
<path d="M52.3593 58C52.2567 58 52.1542 58 52.0516 57.9491C51.9491 57.9491 51.8465 57.8982 51.744 57.8472C51.6414 57.7963 51.5902 57.7453 51.4876 57.6944C51.3851 57.6434 51.3338 57.5925 51.2313 57.4906C51.18 57.4397 51.0774 57.3378 51.0262 57.2868C50.9749 57.1849 50.9236 57.134 50.8723 57.0321C50.8211 56.9302 50.8211 56.8283 50.7698 56.7265C50.7698 56.6246 50.7185 56.5227 50.7185 56.4208C50.7185 56.3189 50.7185 56.217 50.7698 56.1151C50.7698 56.0133 50.8211 55.9114 50.8723 55.8095C50.9236 55.7076 50.9749 55.6566 51.0262 55.5548C51.0774 55.4529 51.1287 55.4019 51.2313 55.3C51.3338 55.1982 51.3851 55.1472 51.4876 55.0963C51.5902 55.0453 51.6414 54.9944 51.744 54.9434C51.8465 54.8925 51.9491 54.8925 52.0516 54.8416C52.2567 54.7906 52.4618 54.7906 52.6669 54.8416C52.7695 54.8416 52.872 54.8925 52.9746 54.9434C53.0771 54.9944 53.1797 55.0453 53.231 55.0963C53.3335 55.1472 53.3848 55.1982 53.4873 55.3C53.5386 55.351 53.6412 55.4529 53.6924 55.5548C53.7437 55.6566 53.795 55.7076 53.8463 55.8095C53.8975 55.9114 53.8975 56.0133 53.9488 56.1151C53.9488 56.217 54.0001 56.3189 54.0001 56.4208C54.0001 56.5227 54.0001 56.6246 53.9488 56.7265C53.9488 56.8283 53.8975 56.9302 53.8463 57.0321C53.795 57.134 53.7437 57.2359 53.6924 57.2868C53.6412 57.3887 53.5899 57.4397 53.4873 57.4906C53.4361 57.5416 53.3335 57.6434 53.231 57.6944C53.1284 57.7453 53.0771 57.7963 52.9746 57.8472C52.872 57.8982 52.7695 57.8982 52.6669 57.9491C52.5644 58 52.4618 58 52.3593 58Z" fill="#919AA1"/>
</svg>
