<svg width="17" height="22" viewBox="0 0 17 22" fill="none" xmlns="http://www.w3.org/2000/svg">
<path d="M8.48934 0.660004C4.16805 0.660004 0.636437 4.18 0.614502 8.492C0.614502 10.12 1.11902 11.704 2.06224 13.046C2.08418 13.068 2.08418 13.09 2.10612 13.09L2.12805 13.112L8.16031 21.164C8.24805 21.274 8.35773 21.34 8.48934 21.34C8.62095 21.34 8.73063 21.274 8.81837 21.164L14.8726 13.068C14.8945 13.068 14.9164 13.046 14.9164 13.024C15.8597 11.682 16.3642 10.12 16.3642 8.492C16.3422 4.18 12.8326 0.660004 8.48934 0.660004ZM8.48934 11.616C6.55902 11.616 5.0016 10.098 5.0016 8.25C5.0016 6.38 6.55902 4.884 8.48934 4.884C10.4197 4.884 11.9771 6.38 11.9771 8.25C11.9771 10.098 10.4197 11.616 8.48934 11.616Z" fill="white"/>
<path d="M8.48903 22C8.18194 22 7.87484 21.846 7.65548 21.604L7.63355 21.582L1.64516 13.552C1.60129 13.508 1.57936 13.464 1.55742 13.42C0.526452 11.946 0 10.252 0 8.492C0 3.806 3.81677 0 8.48903 0C13.1832 0 17 3.828 17 8.514C17 10.252 16.4735 11.924 15.4865 13.376C15.4426 13.442 15.3987 13.508 15.3329 13.574L9.34452 21.56L9.32258 21.582C9.12516 21.846 8.81806 22 8.48903 22ZM2.63226 12.694L2.65419 12.716L8.48903 20.526L14.3458 12.694C14.3677 12.672 14.3897 12.65 14.3897 12.628C15.2232 11.418 15.6839 9.988 15.6839 8.514C15.6839 4.554 12.4594 1.32 8.48903 1.32C4.54065 1.32 1.29419 4.532 1.27226 8.514C1.27226 9.988 1.7329 11.418 2.58839 12.65C2.63226 12.672 2.63226 12.694 2.63226 12.694Z" fill="#CAD7E0"/>
<path d="M8.48872 4.884C7.56371 4.884 6.67659 5.23863 6.02251 5.86988C5.36843 6.50113 5.00098 7.35728 5.00098 8.25C5.00098 9.14272 5.36843 9.99888 6.02251 10.6301C6.67659 11.2614 7.56371 11.616 8.48872 11.616C9.41372 11.616 10.3008 11.2614 10.9549 10.6301C11.609 9.99888 11.9765 9.14272 11.9765 8.25C11.9765 7.35728 11.609 6.50113 10.9549 5.86988C10.3008 5.23863 9.41372 4.884 8.48872 4.884Z" fill="white"/>
<path d="M8.48931 12.276C6.20802 12.276 4.34351 10.472 4.34351 8.25C4.34351 6.028 6.20802 4.202 8.48931 4.202C10.7706 4.202 12.6351 6.006 12.6351 8.228C12.6351 10.45 10.7706 12.276 8.48931 12.276ZM8.48931 5.522C6.93189 5.522 5.65963 6.732 5.65963 8.228C5.65963 9.724 6.93189 10.956 8.48931 10.956C10.0467 10.956 11.319 9.746 11.319 8.25C11.319 6.754 10.0467 5.522 8.48931 5.522Z" fill="#CAD7E0"/>
</svg>
