<svg width="23" height="16" viewBox="0 0 23 16" fill="none" xmlns="http://www.w3.org/2000/svg">
<path d="M6.02363 15.4545H20.6267C21.6307 15.4545 22.4521 14.6364 22.4521 13.6364V2.36363C22.4521 1.36363 21.6307 0.545448 20.6267 0.545448H6.02363C5.01967 0.545448 4.19824 1.36363 4.19824 2.36363V13.6364C4.19824 14.6364 5.01967 15.4545 6.02363 15.4545Z" fill="white"/>
<path d="M20.6266 16H3.28541C2.97509 16 2.73779 15.7636 2.73779 15.4546C2.73779 15.1455 2.97509 14.9091 3.28541 14.9091H20.6266C21.3385 14.9091 21.9044 14.3273 21.9044 13.8182V4.72728C21.9044 4.41819 22.1417 4.18182 22.452 4.18182C22.7623 4.18182 22.9996 4.41819 22.9996 4.72728V13.8182C22.9996 14.9818 21.8861 16 20.6266 16Z" fill="#CAD7E0"/>
<path d="M13.3252 8.90909C10.7331 8.90909 8.32363 7.89091 6.53475 6.01818C6.33396 5.8 6.33396 5.45455 6.553 5.25455C6.77205 5.05455 7.11887 5.05455 7.31967 5.27273C8.90775 6.90909 11.0252 7.81818 13.3069 7.81818C15.5887 7.81818 17.7244 6.90909 19.2942 5.27273C19.495 5.05455 19.8418 5.05455 20.0609 5.25455C20.2799 5.45455 20.2799 5.8 20.0791 6.01818C18.3268 7.89091 15.9172 8.90909 13.3252 8.90909ZM4.19825 5.09091C3.88794 5.09091 3.65063 4.85455 3.65063 4.54545V2.36364C3.65063 1.05455 4.70936 0 6.02364 0H20.6268C21.941 0 22.9998 1.05455 22.9998 2.36364C22.9998 2.67273 22.7625 2.90909 22.4521 2.90909C22.1418 2.90909 21.9045 2.67273 21.9045 2.36364C21.9045 1.65455 21.3387 1.09091 20.6268 1.09091H6.02364C5.31174 1.09091 4.74587 1.65455 4.74587 2.36364V4.54545C4.74587 4.85455 4.50857 5.09091 4.19825 5.09091Z" fill="#CAD7E0"/>
<path d="M4.19844 8.72727H2.92066C2.61035 8.72727 2.37305 8.49091 2.37305 8.18181C2.37305 7.87272 2.61035 7.63636 2.92066 7.63636H4.19844C4.50875 7.63636 4.74605 7.87272 4.74605 8.18181C4.74605 8.49091 4.50875 8.72727 4.19844 8.72727Z" fill="#CAD7E0"/>
<path d="M0.547617 16C0.511109 16 0.474601 16 0.438093 15.9818C0.401586 15.9818 0.365078 15.9636 0.32857 15.9455C0.292062 15.9273 0.273808 15.9091 0.237301 15.8909C0.200793 15.8727 0.182539 15.8545 0.146031 15.8182C0.0547617 15.7455 0 15.6 0 15.4545C0 15.3091 0.0547617 15.1636 0.164285 15.0727C0.182539 15.0545 0.219047 15.0182 0.255555 15C0.292062 14.9818 0.310316 14.9636 0.346824 14.9455C0.383332 14.9273 0.41984 14.9273 0.456347 14.9091C0.638886 14.8727 0.821425 14.9273 0.949202 15.0545C0.967456 15.0727 1.00396 15.1091 1.02222 15.1273C1.04047 15.1636 1.05873 15.1818 1.07698 15.2182C1.09523 15.2545 1.09523 15.2909 1.11349 15.3273C1.11349 15.3636 1.13174 15.4 1.13174 15.4364C1.13174 15.5818 1.07698 15.7273 0.967456 15.8182C0.839679 15.9455 0.693648 16 0.547617 16Z" fill="#CAD7E0"/>
<path d="M6.02344 12.3636H1.45997C1.14965 12.3636 0.912354 12.1273 0.912354 11.8182C0.912354 11.5091 1.14965 11.2727 1.45997 11.2727H6.02344C6.33376 11.2727 6.57106 11.5091 6.57106 11.8182C6.57106 12.1273 6.33376 12.3636 6.02344 12.3636Z" fill="#CAD7E0"/>
</svg>
