<svg width="15" height="18" viewBox="0 0 15 18" fill="none" xmlns="http://www.w3.org/2000/svg">
<path d="M5.37736 0C5.14245 0 4.95283 0.191429 4.95283 0.428571C4.95283 0.665714 5.14245 0.857143 5.37736 0.857143H9.62264C9.85755 0.857143 10.0472 0.665714 10.0472 0.428571C10.0472 0.191429 9.85755 0 9.62264 0H5.37736ZM1.83962 2C0.825 2 0 2.83286 0 3.85714C0 4.88143 0.825 5.71429 1.83962 5.71429H12.7358V14.7143C12.7358 16.0529 11.6561 17.1429 10.3302 17.1429H4.66981C3.34387 17.1429 2.26415 16.0529 2.26415 14.7143V7.28571C2.26415 7.04857 2.07453 6.85714 1.83962 6.85714C1.60472 6.85714 1.41509 7.04857 1.41509 7.28571V14.7143C1.41509 16.5257 2.87547 18 4.66981 18H10.3302C12.1245 18 13.5849 16.5257 13.5849 14.7143V5.66295C14.3943 5.46866 15 4.73429 15 3.85714C15 2.83286 14.175 2 13.1604 2H1.83962ZM1.83962 2.85714H13.1604C13.7066 2.85714 14.1509 3.30571 14.1509 3.85714C14.1509 4.40857 13.7066 4.85714 13.1604 4.85714H1.83962C1.2934 4.85714 0.849057 4.40857 0.849057 3.85714C0.849057 3.30571 1.2934 2.85714 1.83962 2.85714ZM5.51887 7.71429C5.28396 7.71429 5.09434 7.90571 5.09434 8.14286V14.7143C5.09434 14.9514 5.28396 15.1429 5.51887 15.1429C5.75377 15.1429 5.9434 14.9514 5.9434 14.7143V8.14286C5.9434 7.90571 5.75377 7.71429 5.51887 7.71429ZM9.48113 7.71429C9.24623 7.71429 9.0566 7.90571 9.0566 8.14286V14.7143C9.0566 14.9514 9.24623 15.1429 9.48113 15.1429C9.71604 15.1429 9.90566 14.9514 9.90566 14.7143V8.14286C9.90566 7.90571 9.71604 7.71429 9.48113 7.71429Z" fill="#F95657"/>
</svg>
